<?xml version="1.0" encoding="iso-8859-1"?>
<!-- Generator: Adobe Illustrator 16.0.0, SVG Export Plug-In . SVG Version: 6.00 Build 0)  -->
<!DOCTYPE svg PUBLIC "-//W3C//DTD SVG 1.1//EN" "http://www.w3.org/Graphics/SVG/1.1/DTD/svg11.dtd">
<svg version="1.1" id="Capa_1" xmlns="http://www.w3.org/2000/svg" xmlns:xlink="http://www.w3.org/1999/xlink" x="0px" y="0px"
	 width="481.287px" height="481.287px" viewBox="0 0 481.287 481.287" style="enable-background:new 0 0 481.287 481.287;"
	 xml:space="preserve">
<g>
	<path d="M474.446,297.064l-30-196.584c-0.483-3.175-2.171-6.04-4.711-8.004L323.601,2.68c-2.057-1.622-4.637-2.612-7.445-2.677
		c-0.004,0.001-0.014,0-0.021,0c-0.104-0.002-0.208,0.001-0.31-0.003H165.897c-0.138,0.001-0.275,0.002-0.412,0.005
		c-2.772,0.078-5.319,1.06-7.356,2.66L41.569,92.462c-2.549,1.964-4.243,4.835-4.729,8.018l-30,196.584
		c-0.55,3.604,0.5,7.267,2.875,10.031c2.375,2.764,5.837,4.354,9.482,4.354h73.023c6.736,0,12.261-5.339,12.493-12.071l1.811-52.721
		l10.282,47.093L74.62,465.475c-0.916,3.729-0.068,7.668,2.298,10.689c2.366,3.021,5.99,4.789,9.828,4.793l307.771,0.33
		c0.004,0,0.009,0,0.013,0c3.837,0,7.463-1.764,9.833-4.781c2.373-3.021,3.224-6.969,2.308-10.699l-41.996-171.004l10.146-46.459
		l1.752,51.035c0.231,6.732,5.756,12.071,12.493,12.071h73.023c3.645,0,7.106-1.591,9.481-4.354
		C473.946,304.331,474.996,300.667,474.446,297.064z M294.121,25l-53.448,91.784L187.527,25H294.121z M378.584,455.818
		l-275.887,0.156l36.598-148.97h136.145l-10.896,33.925c-2.111,6.572,1.506,13.611,8.079,15.723
		c6.572,2.111,13.612-1.506,15.724-8.078l13.188-41.068h2.443l15.968,49.723c1.703,5.303,6.613,8.682,11.898,8.682
		c1.267,0,2.555-0.193,3.825-0.602c6.572-2.111,10.189-9.15,8.079-15.725l-13.712-42.562l11.889-0.017L378.584,455.818z
		 M401.144,286.451l-4.585-133.53c-0.115-3.348,0.272-12.464-10.728-13.589c-10.65-1.089-14.1,5.988-15.055,10.361l-28.625,131.063
		H139.559L110.87,149.364c-1.226-5.657-4.849-11.538-14.415-10.302c-9.823,1.27-11.611,10.511-11.726,13.858l-4.585,133.531H33.75
		l27.048-177.243l101.376-78.101l67.651,116.834c2.232,3.855,6.347,6.23,10.802,6.236c0.005,0,0.01,0,0.015,0
		c4.449,0,8.563-2.364,10.802-6.21l68.049-116.859l100.992,78.087l27.05,177.256H401.144z"/>
</g>
<g>
</g>
<g>
</g>
<g>
</g>
<g>
</g>
<g>
</g>
<g>
</g>
<g>
</g>
<g>
</g>
<g>
</g>
<g>
</g>
<g>
</g>
<g>
</g>
<g>
</g>
<g>
</g>
<g>
</g>
</svg>
